<mxfile host="65bd71144e">
    <diagram id="2KuoScj9xAzUmHPb3jLi" name="第 1 页">
        <mxGraphModel dx="1603" dy="1189" grid="1" gridSize="10" guides="1" tooltips="1" connect="1" arrows="1" fold="1" page="1" pageScale="1" pageWidth="827" pageHeight="1169" background="none" math="0" shadow="0">
            <root>
                <mxCell id="0"/>
                <mxCell id="1" parent="0"/>
                <mxCell id="2" value="Qaunt" style="text;html=1;align=center;verticalAlign=middle;resizable=0;points=[];autosize=1;strokeColor=none;rounded=1;" vertex="1" parent="1">
                    <mxGeometry x="375" y="110" width="50" height="20" as="geometry"/>
                </mxCell>
                <mxCell id="89" style="edgeStyle=none;html=1;startArrow=classic;startFill=1;entryX=0.5;entryY=0;entryDx=0;entryDy=0;" edge="1" parent="1" source="10" target="90">
                    <mxGeometry relative="1" as="geometry">
                        <mxPoint x="400" y="410" as="targetPoint"/>
                    </mxGeometry>
                </mxCell>
                <mxCell id="103" value="每天收盘后更新" style="edgeLabel;html=1;align=center;verticalAlign=middle;resizable=0;points=[];rounded=1;" vertex="1" connectable="0" parent="89">
                    <mxGeometry x="-0.24" relative="1" as="geometry">
                        <mxPoint as="offset"/>
                    </mxGeometry>
                </mxCell>
                <mxCell id="193" style="edgeStyle=none;html=1;entryX=0.5;entryY=0;entryDx=0;entryDy=0;startArrow=classic;startFill=1;endArrow=classic;endFill=1;" edge="1" parent="1" source="10" target="144">
                    <mxGeometry relative="1" as="geometry"/>
                </mxCell>
                <mxCell id="194" value="每15M更新一次" style="edgeLabel;html=1;align=center;verticalAlign=middle;resizable=0;points=[];rounded=1;" vertex="1" connectable="0" parent="193">
                    <mxGeometry x="-0.0041" relative="1" as="geometry">
                        <mxPoint as="offset"/>
                    </mxGeometry>
                </mxCell>
                <mxCell id="10" value="py模块:定时更新,定时检查数据一致性" style="ellipse;whiteSpace=wrap;html=1;aspect=fixed;fillColor=#1ba1e2;strokeColor=#006EAF;fontColor=#ffffff;rounded=1;" vertex="1" parent="1">
                    <mxGeometry x="360" y="180" width="80" height="80" as="geometry"/>
                </mxCell>
                <mxCell id="17" value="量化平台接口" style="whiteSpace=wrap;html=1;aspect=fixed;fillColor=#f0a30a;strokeColor=#BD7000;fontColor=#000000;rounded=1;" vertex="1" parent="1">
                    <mxGeometry x="1190" y="190" width="80" height="80" as="geometry"/>
                </mxCell>
                <mxCell id="18" value="" style="endArrow=none;startArrow=classic;html=1;exitX=1;exitY=0.5;exitDx=0;exitDy=0;entryX=-0.062;entryY=0.363;entryDx=0;entryDy=0;entryPerimeter=0;startFill=1;endFill=0;" edge="1" parent="1" source="10" target="17">
                    <mxGeometry width="100" height="100" relative="1" as="geometry">
                        <mxPoint x="690" y="230" as="sourcePoint"/>
                        <mxPoint x="790" y="130" as="targetPoint"/>
                    </mxGeometry>
                </mxCell>
                <mxCell id="19" value="定期拉取数据" style="edgeLabel;html=1;align=center;verticalAlign=middle;resizable=0;points=[];rounded=1;" vertex="1" connectable="0" parent="18">
                    <mxGeometry x="0.023" y="-1" relative="1" as="geometry">
                        <mxPoint as="offset"/>
                    </mxGeometry>
                </mxCell>
                <mxCell id="20" value="" style="endArrow=classic;startArrow=classic;html=1;entryX=0.813;entryY=0.938;entryDx=0;entryDy=0;exitX=0.5;exitY=0;exitDx=0;exitDy=0;entryPerimeter=0;" edge="1" parent="1" source="68" target="10">
                    <mxGeometry width="100" height="100" relative="1" as="geometry">
                        <mxPoint x="569" y="320" as="sourcePoint"/>
                        <mxPoint x="790" y="130" as="targetPoint"/>
                    </mxGeometry>
                </mxCell>
                <mxCell id="25" value="每月更新" style="edgeLabel;html=1;align=center;verticalAlign=middle;resizable=0;points=[];rounded=1;" vertex="1" connectable="0" parent="20">
                    <mxGeometry x="0.0506" relative="1" as="geometry">
                        <mxPoint as="offset"/>
                    </mxGeometry>
                </mxCell>
                <mxCell id="197" style="edgeStyle=none;html=1;entryX=0.5;entryY=0;entryDx=0;entryDy=0;startArrow=none;startFill=0;endArrow=classic;endFill=1;" edge="1" parent="1" source="68" target="195">
                    <mxGeometry relative="1" as="geometry"/>
                </mxCell>
                <mxCell id="68" value="code" style="shape=table;startSize=30;container=1;collapsible=0;childLayout=tableLayout;rounded=1;" vertex="1" parent="1">
                    <mxGeometry x="570" y="395" width="180" height="230" as="geometry"/>
                </mxCell>
                <mxCell id="69" value="" style="shape=partialRectangle;collapsible=0;dropTarget=0;pointerEvents=0;fillColor=none;top=0;left=0;bottom=0;right=0;points=[[0,0.5],[1,0.5]];portConstraint=eastwest;rounded=1;" vertex="1" parent="68">
                    <mxGeometry y="30" width="180" height="40" as="geometry"/>
                </mxCell>
                <mxCell id="70" value="code" style="shape=partialRectangle;html=1;whiteSpace=wrap;connectable=0;overflow=hidden;fillColor=none;top=0;left=0;bottom=0;right=0;pointerEvents=1;rounded=1;" vertex="1" parent="69">
                    <mxGeometry width="60" height="40" as="geometry"/>
                </mxCell>
                <mxCell id="71" value="string" style="shape=partialRectangle;html=1;whiteSpace=wrap;connectable=0;overflow=hidden;fillColor=none;top=0;left=0;bottom=0;right=0;pointerEvents=1;rounded=1;" vertex="1" parent="69">
                    <mxGeometry x="60" width="60" height="40" as="geometry"/>
                </mxCell>
                <mxCell id="81" value="代码" style="shape=partialRectangle;html=1;whiteSpace=wrap;connectable=0;overflow=hidden;fillColor=none;top=0;left=0;bottom=0;right=0;pointerEvents=1;rounded=1;" vertex="1" parent="69">
                    <mxGeometry x="120" width="60" height="40" as="geometry"/>
                </mxCell>
                <mxCell id="72" value="" style="shape=partialRectangle;collapsible=0;dropTarget=0;pointerEvents=0;fillColor=none;top=0;left=0;bottom=0;right=0;points=[[0,0.5],[1,0.5]];portConstraint=eastwest;rounded=1;" vertex="1" parent="68">
                    <mxGeometry y="70" width="180" height="40" as="geometry"/>
                </mxCell>
                <mxCell id="73" value="name" style="shape=partialRectangle;html=1;whiteSpace=wrap;connectable=0;overflow=hidden;fillColor=none;top=0;left=0;bottom=0;right=0;pointerEvents=1;rounded=1;" vertex="1" parent="72">
                    <mxGeometry width="60" height="40" as="geometry"/>
                </mxCell>
                <mxCell id="74" value="string" style="shape=partialRectangle;html=1;whiteSpace=wrap;connectable=0;overflow=hidden;fillColor=none;top=0;left=0;bottom=0;right=0;pointerEvents=1;rounded=1;" vertex="1" parent="72">
                    <mxGeometry x="60" width="60" height="40" as="geometry"/>
                </mxCell>
                <mxCell id="82" style="shape=partialRectangle;html=1;whiteSpace=wrap;connectable=0;overflow=hidden;fillColor=none;top=0;left=0;bottom=0;right=0;pointerEvents=1;rounded=1;" vertex="1" parent="72">
                    <mxGeometry x="120" width="60" height="40" as="geometry"/>
                </mxCell>
                <mxCell id="75" value="" style="shape=partialRectangle;collapsible=0;dropTarget=0;pointerEvents=0;fillColor=none;top=0;left=0;bottom=0;right=0;points=[[0,0.5],[1,0.5]];portConstraint=eastwest;rounded=1;" vertex="1" parent="68">
                    <mxGeometry y="110" width="180" height="40" as="geometry"/>
                </mxCell>
                <mxCell id="76" value="type" style="shape=partialRectangle;html=1;whiteSpace=wrap;connectable=0;overflow=hidden;fillColor=none;top=0;left=0;bottom=0;right=0;pointerEvents=1;rounded=1;" vertex="1" parent="75">
                    <mxGeometry width="60" height="40" as="geometry"/>
                </mxCell>
                <mxCell id="77" value="string" style="shape=partialRectangle;html=1;whiteSpace=wrap;connectable=0;overflow=hidden;fillColor=none;top=0;left=0;bottom=0;right=0;pointerEvents=1;rounded=1;" vertex="1" parent="75">
                    <mxGeometry x="60" width="60" height="40" as="geometry"/>
                </mxCell>
                <mxCell id="83" value="类型" style="shape=partialRectangle;html=1;whiteSpace=wrap;connectable=0;overflow=hidden;fillColor=none;top=0;left=0;bottom=0;right=0;pointerEvents=1;rounded=1;" vertex="1" parent="75">
                    <mxGeometry x="120" width="60" height="40" as="geometry"/>
                </mxCell>
                <mxCell id="78" value="" style="shape=partialRectangle;collapsible=0;dropTarget=0;pointerEvents=0;fillColor=none;top=0;left=0;bottom=0;right=0;points=[[0,0.5],[1,0.5]];portConstraint=eastwest;rounded=1;" vertex="1" parent="68">
                    <mxGeometry y="150" width="180" height="40" as="geometry"/>
                </mxCell>
                <mxCell id="79" value="create_at" style="shape=partialRectangle;html=1;whiteSpace=wrap;connectable=0;overflow=hidden;fillColor=none;top=0;left=0;bottom=0;right=0;pointerEvents=1;rounded=1;" vertex="1" parent="78">
                    <mxGeometry width="60" height="40" as="geometry"/>
                </mxCell>
                <mxCell id="80" value="" style="shape=partialRectangle;html=1;whiteSpace=wrap;connectable=0;overflow=hidden;fillColor=none;top=0;left=0;bottom=0;right=0;pointerEvents=1;rounded=1;" vertex="1" parent="78">
                    <mxGeometry x="60" width="60" height="40" as="geometry"/>
                </mxCell>
                <mxCell id="84" style="shape=partialRectangle;html=1;whiteSpace=wrap;connectable=0;overflow=hidden;fillColor=none;top=0;left=0;bottom=0;right=0;pointerEvents=1;rounded=1;" vertex="1" parent="78">
                    <mxGeometry x="120" width="60" height="40" as="geometry"/>
                </mxCell>
                <mxCell id="85" value="" style="shape=partialRectangle;collapsible=0;dropTarget=0;pointerEvents=0;fillColor=none;top=0;left=0;bottom=0;right=0;points=[[0,0.5],[1,0.5]];portConstraint=eastwest;rounded=1;" vertex="1" parent="68">
                    <mxGeometry y="190" width="180" height="40" as="geometry"/>
                </mxCell>
                <mxCell id="86" value="update_at" style="shape=partialRectangle;html=1;whiteSpace=wrap;connectable=0;overflow=hidden;fillColor=none;top=0;left=0;bottom=0;right=0;pointerEvents=1;rounded=1;" vertex="1" parent="85">
                    <mxGeometry width="60" height="40" as="geometry"/>
                </mxCell>
                <mxCell id="87" value="" style="shape=partialRectangle;html=1;whiteSpace=wrap;connectable=0;overflow=hidden;fillColor=none;top=0;left=0;bottom=0;right=0;pointerEvents=1;rounded=1;" vertex="1" parent="85">
                    <mxGeometry x="60" width="60" height="40" as="geometry"/>
                </mxCell>
                <mxCell id="88" style="shape=partialRectangle;html=1;whiteSpace=wrap;connectable=0;overflow=hidden;fillColor=none;top=0;left=0;bottom=0;right=0;pointerEvents=1;rounded=1;" vertex="1" parent="85">
                    <mxGeometry x="120" width="60" height="40" as="geometry"/>
                </mxCell>
                <mxCell id="90" value="day" style="shape=table;startSize=30;container=1;collapsible=0;childLayout=tableLayout;rounded=1;" vertex="1" parent="1">
                    <mxGeometry x="310" y="395" width="180" height="510" as="geometry"/>
                </mxCell>
                <mxCell id="91" value="" style="shape=partialRectangle;collapsible=0;dropTarget=0;pointerEvents=0;fillColor=none;top=0;left=0;bottom=0;right=0;points=[[0,0.5],[1,0.5]];portConstraint=eastwest;rounded=1;" vertex="1" parent="90">
                    <mxGeometry y="30" width="180" height="40" as="geometry"/>
                </mxCell>
                <mxCell id="92" value="code" style="shape=partialRectangle;html=1;whiteSpace=wrap;connectable=0;overflow=hidden;fillColor=none;top=0;left=0;bottom=0;right=0;pointerEvents=1;rounded=1;" vertex="1" parent="91">
                    <mxGeometry width="60" height="40" as="geometry"/>
                </mxCell>
                <mxCell id="93" value="" style="shape=partialRectangle;html=1;whiteSpace=wrap;connectable=0;overflow=hidden;fillColor=none;top=0;left=0;bottom=0;right=0;pointerEvents=1;rounded=1;" vertex="1" parent="91">
                    <mxGeometry x="60" width="60" height="40" as="geometry"/>
                </mxCell>
                <mxCell id="104" style="shape=partialRectangle;html=1;whiteSpace=wrap;connectable=0;overflow=hidden;fillColor=none;top=0;left=0;bottom=0;right=0;pointerEvents=1;rounded=1;" vertex="1" parent="91">
                    <mxGeometry x="120" width="60" height="40" as="geometry"/>
                </mxCell>
                <mxCell id="94" value="" style="shape=partialRectangle;collapsible=0;dropTarget=0;pointerEvents=0;fillColor=none;top=0;left=0;bottom=0;right=0;points=[[0,0.5],[1,0.5]];portConstraint=eastwest;rounded=1;" vertex="1" parent="90">
                    <mxGeometry y="70" width="180" height="40" as="geometry"/>
                </mxCell>
                <mxCell id="95" value="name" style="shape=partialRectangle;html=1;whiteSpace=wrap;connectable=0;overflow=hidden;fillColor=none;top=0;left=0;bottom=0;right=0;pointerEvents=1;rounded=1;" vertex="1" parent="94">
                    <mxGeometry width="60" height="40" as="geometry"/>
                </mxCell>
                <mxCell id="96" value="" style="shape=partialRectangle;html=1;whiteSpace=wrap;connectable=0;overflow=hidden;fillColor=none;top=0;left=0;bottom=0;right=0;pointerEvents=1;rounded=1;" vertex="1" parent="94">
                    <mxGeometry x="60" width="60" height="40" as="geometry"/>
                </mxCell>
                <mxCell id="105" style="shape=partialRectangle;html=1;whiteSpace=wrap;connectable=0;overflow=hidden;fillColor=none;top=0;left=0;bottom=0;right=0;pointerEvents=1;rounded=1;" vertex="1" parent="94">
                    <mxGeometry x="120" width="60" height="40" as="geometry"/>
                </mxCell>
                <mxCell id="97" value="" style="shape=partialRectangle;collapsible=0;dropTarget=0;pointerEvents=0;fillColor=none;top=0;left=0;bottom=0;right=0;points=[[0,0.5],[1,0.5]];portConstraint=eastwest;rounded=1;" vertex="1" parent="90">
                    <mxGeometry y="110" width="180" height="40" as="geometry"/>
                </mxCell>
                <mxCell id="98" value="type" style="shape=partialRectangle;html=1;whiteSpace=wrap;connectable=0;overflow=hidden;fillColor=none;top=0;left=0;bottom=0;right=0;pointerEvents=1;rounded=1;" vertex="1" parent="97">
                    <mxGeometry width="60" height="40" as="geometry"/>
                </mxCell>
                <mxCell id="99" value="" style="shape=partialRectangle;html=1;whiteSpace=wrap;connectable=0;overflow=hidden;fillColor=none;top=0;left=0;bottom=0;right=0;pointerEvents=1;rounded=1;" vertex="1" parent="97">
                    <mxGeometry x="60" width="60" height="40" as="geometry"/>
                </mxCell>
                <mxCell id="106" style="shape=partialRectangle;html=1;whiteSpace=wrap;connectable=0;overflow=hidden;fillColor=none;top=0;left=0;bottom=0;right=0;pointerEvents=1;rounded=1;" vertex="1" parent="97">
                    <mxGeometry x="120" width="60" height="40" as="geometry"/>
                </mxCell>
                <mxCell id="100" value="" style="shape=partialRectangle;collapsible=0;dropTarget=0;pointerEvents=0;fillColor=none;top=0;left=0;bottom=0;right=0;points=[[0,0.5],[1,0.5]];portConstraint=eastwest;rounded=1;" vertex="1" parent="90">
                    <mxGeometry y="150" width="180" height="40" as="geometry"/>
                </mxCell>
                <mxCell id="101" value="date" style="shape=partialRectangle;html=1;whiteSpace=wrap;connectable=0;overflow=hidden;fillColor=none;top=0;left=0;bottom=0;right=0;pointerEvents=1;rounded=1;" vertex="1" parent="100">
                    <mxGeometry width="60" height="40" as="geometry"/>
                </mxCell>
                <mxCell id="102" value="" style="shape=partialRectangle;html=1;whiteSpace=wrap;connectable=0;overflow=hidden;fillColor=none;top=0;left=0;bottom=0;right=0;pointerEvents=1;rounded=1;" vertex="1" parent="100">
                    <mxGeometry x="60" width="60" height="40" as="geometry"/>
                </mxCell>
                <mxCell id="107" style="shape=partialRectangle;html=1;whiteSpace=wrap;connectable=0;overflow=hidden;fillColor=none;top=0;left=0;bottom=0;right=0;pointerEvents=1;rounded=1;" vertex="1" parent="100">
                    <mxGeometry x="120" width="60" height="40" as="geometry"/>
                </mxCell>
                <mxCell id="108" value="" style="shape=partialRectangle;collapsible=0;dropTarget=0;pointerEvents=0;fillColor=none;top=0;left=0;bottom=0;right=0;points=[[0,0.5],[1,0.5]];portConstraint=eastwest;rounded=1;" vertex="1" parent="90">
                    <mxGeometry y="190" width="180" height="40" as="geometry"/>
                </mxCell>
                <mxCell id="109" value="ddate" style="shape=partialRectangle;html=1;whiteSpace=wrap;connectable=0;overflow=hidden;fillColor=none;top=0;left=0;bottom=0;right=0;pointerEvents=1;rounded=1;" vertex="1" parent="108">
                    <mxGeometry width="60" height="40" as="geometry"/>
                </mxCell>
                <mxCell id="110" value="" style="shape=partialRectangle;html=1;whiteSpace=wrap;connectable=0;overflow=hidden;fillColor=none;top=0;left=0;bottom=0;right=0;pointerEvents=1;rounded=1;" vertex="1" parent="108">
                    <mxGeometry x="60" width="60" height="40" as="geometry"/>
                </mxCell>
                <mxCell id="111" style="shape=partialRectangle;html=1;whiteSpace=wrap;connectable=0;overflow=hidden;fillColor=none;top=0;left=0;bottom=0;right=0;pointerEvents=1;rounded=1;" vertex="1" parent="108">
                    <mxGeometry x="120" width="60" height="40" as="geometry"/>
                </mxCell>
                <mxCell id="112" value="" style="shape=partialRectangle;collapsible=0;dropTarget=0;pointerEvents=0;fillColor=none;top=0;left=0;bottom=0;right=0;points=[[0,0.5],[1,0.5]];portConstraint=eastwest;rounded=1;" vertex="1" parent="90">
                    <mxGeometry y="230" width="180" height="40" as="geometry"/>
                </mxCell>
                <mxCell id="113" value="open" style="shape=partialRectangle;html=1;whiteSpace=wrap;connectable=0;overflow=hidden;fillColor=none;top=0;left=0;bottom=0;right=0;pointerEvents=1;rounded=1;" vertex="1" parent="112">
                    <mxGeometry width="60" height="40" as="geometry"/>
                </mxCell>
                <mxCell id="114" value="" style="shape=partialRectangle;html=1;whiteSpace=wrap;connectable=0;overflow=hidden;fillColor=none;top=0;left=0;bottom=0;right=0;pointerEvents=1;rounded=1;" vertex="1" parent="112">
                    <mxGeometry x="60" width="60" height="40" as="geometry"/>
                </mxCell>
                <mxCell id="115" style="shape=partialRectangle;html=1;whiteSpace=wrap;connectable=0;overflow=hidden;fillColor=none;top=0;left=0;bottom=0;right=0;pointerEvents=1;rounded=1;" vertex="1" parent="112">
                    <mxGeometry x="120" width="60" height="40" as="geometry"/>
                </mxCell>
                <mxCell id="116" value="" style="shape=partialRectangle;collapsible=0;dropTarget=0;pointerEvents=0;fillColor=none;top=0;left=0;bottom=0;right=0;points=[[0,0.5],[1,0.5]];portConstraint=eastwest;rounded=1;" vertex="1" parent="90">
                    <mxGeometry y="270" width="180" height="40" as="geometry"/>
                </mxCell>
                <mxCell id="117" value="close" style="shape=partialRectangle;html=1;whiteSpace=wrap;connectable=0;overflow=hidden;fillColor=none;top=0;left=0;bottom=0;right=0;pointerEvents=1;rounded=1;" vertex="1" parent="116">
                    <mxGeometry width="60" height="40" as="geometry"/>
                </mxCell>
                <mxCell id="118" value="" style="shape=partialRectangle;html=1;whiteSpace=wrap;connectable=0;overflow=hidden;fillColor=none;top=0;left=0;bottom=0;right=0;pointerEvents=1;rounded=1;" vertex="1" parent="116">
                    <mxGeometry x="60" width="60" height="40" as="geometry"/>
                </mxCell>
                <mxCell id="119" style="shape=partialRectangle;html=1;whiteSpace=wrap;connectable=0;overflow=hidden;fillColor=none;top=0;left=0;bottom=0;right=0;pointerEvents=1;rounded=1;" vertex="1" parent="116">
                    <mxGeometry x="120" width="60" height="40" as="geometry"/>
                </mxCell>
                <mxCell id="120" value="" style="shape=partialRectangle;collapsible=0;dropTarget=0;pointerEvents=0;fillColor=none;top=0;left=0;bottom=0;right=0;points=[[0,0.5],[1,0.5]];portConstraint=eastwest;rounded=1;" vertex="1" parent="90">
                    <mxGeometry y="310" width="180" height="40" as="geometry"/>
                </mxCell>
                <mxCell id="121" value="high" style="shape=partialRectangle;html=1;whiteSpace=wrap;connectable=0;overflow=hidden;fillColor=none;top=0;left=0;bottom=0;right=0;pointerEvents=1;rounded=1;" vertex="1" parent="120">
                    <mxGeometry width="60" height="40" as="geometry"/>
                </mxCell>
                <mxCell id="122" value="" style="shape=partialRectangle;html=1;whiteSpace=wrap;connectable=0;overflow=hidden;fillColor=none;top=0;left=0;bottom=0;right=0;pointerEvents=1;rounded=1;" vertex="1" parent="120">
                    <mxGeometry x="60" width="60" height="40" as="geometry"/>
                </mxCell>
                <mxCell id="123" style="shape=partialRectangle;html=1;whiteSpace=wrap;connectable=0;overflow=hidden;fillColor=none;top=0;left=0;bottom=0;right=0;pointerEvents=1;rounded=1;" vertex="1" parent="120">
                    <mxGeometry x="120" width="60" height="40" as="geometry"/>
                </mxCell>
                <mxCell id="124" value="" style="shape=partialRectangle;collapsible=0;dropTarget=0;pointerEvents=0;fillColor=none;top=0;left=0;bottom=0;right=0;points=[[0,0.5],[1,0.5]];portConstraint=eastwest;rounded=1;" vertex="1" parent="90">
                    <mxGeometry y="350" width="180" height="40" as="geometry"/>
                </mxCell>
                <mxCell id="125" value="low" style="shape=partialRectangle;html=1;whiteSpace=wrap;connectable=0;overflow=hidden;fillColor=none;top=0;left=0;bottom=0;right=0;pointerEvents=1;rounded=1;" vertex="1" parent="124">
                    <mxGeometry width="60" height="40" as="geometry"/>
                </mxCell>
                <mxCell id="126" value="" style="shape=partialRectangle;html=1;whiteSpace=wrap;connectable=0;overflow=hidden;fillColor=none;top=0;left=0;bottom=0;right=0;pointerEvents=1;rounded=1;" vertex="1" parent="124">
                    <mxGeometry x="60" width="60" height="40" as="geometry"/>
                </mxCell>
                <mxCell id="127" style="shape=partialRectangle;html=1;whiteSpace=wrap;connectable=0;overflow=hidden;fillColor=none;top=0;left=0;bottom=0;right=0;pointerEvents=1;rounded=1;" vertex="1" parent="124">
                    <mxGeometry x="120" width="60" height="40" as="geometry"/>
                </mxCell>
                <mxCell id="128" value="" style="shape=partialRectangle;collapsible=0;dropTarget=0;pointerEvents=0;fillColor=none;top=0;left=0;bottom=0;right=0;points=[[0,0.5],[1,0.5]];portConstraint=eastwest;rounded=1;" vertex="1" parent="90">
                    <mxGeometry y="390" width="180" height="40" as="geometry"/>
                </mxCell>
                <mxCell id="129" value="volume" style="shape=partialRectangle;html=1;whiteSpace=wrap;connectable=0;overflow=hidden;fillColor=none;top=0;left=0;bottom=0;right=0;pointerEvents=1;rounded=1;" vertex="1" parent="128">
                    <mxGeometry width="60" height="40" as="geometry"/>
                </mxCell>
                <mxCell id="130" value="" style="shape=partialRectangle;html=1;whiteSpace=wrap;connectable=0;overflow=hidden;fillColor=none;top=0;left=0;bottom=0;right=0;pointerEvents=1;rounded=1;" vertex="1" parent="128">
                    <mxGeometry x="60" width="60" height="40" as="geometry"/>
                </mxCell>
                <mxCell id="131" style="shape=partialRectangle;html=1;whiteSpace=wrap;connectable=0;overflow=hidden;fillColor=none;top=0;left=0;bottom=0;right=0;pointerEvents=1;rounded=1;" vertex="1" parent="128">
                    <mxGeometry x="120" width="60" height="40" as="geometry"/>
                </mxCell>
                <mxCell id="132" value="" style="shape=partialRectangle;collapsible=0;dropTarget=0;pointerEvents=0;fillColor=none;top=0;left=0;bottom=0;right=0;points=[[0,0.5],[1,0.5]];portConstraint=eastwest;rounded=1;" vertex="1" parent="90">
                    <mxGeometry y="430" width="180" height="40" as="geometry"/>
                </mxCell>
                <mxCell id="133" value="money" style="shape=partialRectangle;html=1;whiteSpace=wrap;connectable=0;overflow=hidden;fillColor=none;top=0;left=0;bottom=0;right=0;pointerEvents=1;rounded=1;" vertex="1" parent="132">
                    <mxGeometry width="60" height="40" as="geometry"/>
                </mxCell>
                <mxCell id="134" value="" style="shape=partialRectangle;html=1;whiteSpace=wrap;connectable=0;overflow=hidden;fillColor=none;top=0;left=0;bottom=0;right=0;pointerEvents=1;rounded=1;" vertex="1" parent="132">
                    <mxGeometry x="60" width="60" height="40" as="geometry"/>
                </mxCell>
                <mxCell id="135" style="shape=partialRectangle;html=1;whiteSpace=wrap;connectable=0;overflow=hidden;fillColor=none;top=0;left=0;bottom=0;right=0;pointerEvents=1;rounded=1;" vertex="1" parent="132">
                    <mxGeometry x="120" width="60" height="40" as="geometry"/>
                </mxCell>
                <mxCell id="136" value="" style="shape=partialRectangle;collapsible=0;dropTarget=0;pointerEvents=0;fillColor=none;top=0;left=0;bottom=0;right=0;points=[[0,0.5],[1,0.5]];portConstraint=eastwest;rounded=1;" vertex="1" parent="90">
                    <mxGeometry y="470" width="180" height="40" as="geometry"/>
                </mxCell>
                <mxCell id="137" value="create_at" style="shape=partialRectangle;html=1;whiteSpace=wrap;connectable=0;overflow=hidden;fillColor=none;top=0;left=0;bottom=0;right=0;pointerEvents=1;rounded=1;" vertex="1" parent="136">
                    <mxGeometry width="60" height="40" as="geometry"/>
                </mxCell>
                <mxCell id="138" value="" style="shape=partialRectangle;html=1;whiteSpace=wrap;connectable=0;overflow=hidden;fillColor=none;top=0;left=0;bottom=0;right=0;pointerEvents=1;rounded=1;" vertex="1" parent="136">
                    <mxGeometry x="60" width="60" height="40" as="geometry"/>
                </mxCell>
                <mxCell id="139" style="shape=partialRectangle;html=1;whiteSpace=wrap;connectable=0;overflow=hidden;fillColor=none;top=0;left=0;bottom=0;right=0;pointerEvents=1;rounded=1;" vertex="1" parent="136">
                    <mxGeometry x="120" width="60" height="40" as="geometry"/>
                </mxCell>
                <mxCell id="144" value="15M" style="shape=table;startSize=30;container=1;collapsible=0;childLayout=tableLayout;rounded=1;" vertex="1" parent="1">
                    <mxGeometry x="100" y="395" width="180" height="510" as="geometry"/>
                </mxCell>
                <mxCell id="145" value="" style="shape=partialRectangle;collapsible=0;dropTarget=0;pointerEvents=0;fillColor=none;top=0;left=0;bottom=0;right=0;points=[[0,0.5],[1,0.5]];portConstraint=eastwest;rounded=1;" vertex="1" parent="144">
                    <mxGeometry y="30" width="180" height="40" as="geometry"/>
                </mxCell>
                <mxCell id="146" value="code" style="shape=partialRectangle;html=1;whiteSpace=wrap;connectable=0;overflow=hidden;fillColor=none;top=0;left=0;bottom=0;right=0;pointerEvents=1;rounded=1;" vertex="1" parent="145">
                    <mxGeometry width="60" height="40" as="geometry"/>
                </mxCell>
                <mxCell id="147" value="" style="shape=partialRectangle;html=1;whiteSpace=wrap;connectable=0;overflow=hidden;fillColor=none;top=0;left=0;bottom=0;right=0;pointerEvents=1;rounded=1;" vertex="1" parent="145">
                    <mxGeometry x="60" width="60" height="40" as="geometry"/>
                </mxCell>
                <mxCell id="148" style="shape=partialRectangle;html=1;whiteSpace=wrap;connectable=0;overflow=hidden;fillColor=none;top=0;left=0;bottom=0;right=0;pointerEvents=1;rounded=1;" vertex="1" parent="145">
                    <mxGeometry x="120" width="60" height="40" as="geometry"/>
                </mxCell>
                <mxCell id="149" value="" style="shape=partialRectangle;collapsible=0;dropTarget=0;pointerEvents=0;fillColor=none;top=0;left=0;bottom=0;right=0;points=[[0,0.5],[1,0.5]];portConstraint=eastwest;rounded=1;" vertex="1" parent="144">
                    <mxGeometry y="70" width="180" height="40" as="geometry"/>
                </mxCell>
                <mxCell id="150" value="name" style="shape=partialRectangle;html=1;whiteSpace=wrap;connectable=0;overflow=hidden;fillColor=none;top=0;left=0;bottom=0;right=0;pointerEvents=1;rounded=1;" vertex="1" parent="149">
                    <mxGeometry width="60" height="40" as="geometry"/>
                </mxCell>
                <mxCell id="151" value="" style="shape=partialRectangle;html=1;whiteSpace=wrap;connectable=0;overflow=hidden;fillColor=none;top=0;left=0;bottom=0;right=0;pointerEvents=1;rounded=1;" vertex="1" parent="149">
                    <mxGeometry x="60" width="60" height="40" as="geometry"/>
                </mxCell>
                <mxCell id="152" style="shape=partialRectangle;html=1;whiteSpace=wrap;connectable=0;overflow=hidden;fillColor=none;top=0;left=0;bottom=0;right=0;pointerEvents=1;rounded=1;" vertex="1" parent="149">
                    <mxGeometry x="120" width="60" height="40" as="geometry"/>
                </mxCell>
                <mxCell id="153" value="" style="shape=partialRectangle;collapsible=0;dropTarget=0;pointerEvents=0;fillColor=none;top=0;left=0;bottom=0;right=0;points=[[0,0.5],[1,0.5]];portConstraint=eastwest;rounded=1;" vertex="1" parent="144">
                    <mxGeometry y="110" width="180" height="40" as="geometry"/>
                </mxCell>
                <mxCell id="154" value="type" style="shape=partialRectangle;html=1;whiteSpace=wrap;connectable=0;overflow=hidden;fillColor=none;top=0;left=0;bottom=0;right=0;pointerEvents=1;rounded=1;" vertex="1" parent="153">
                    <mxGeometry width="60" height="40" as="geometry"/>
                </mxCell>
                <mxCell id="155" value="" style="shape=partialRectangle;html=1;whiteSpace=wrap;connectable=0;overflow=hidden;fillColor=none;top=0;left=0;bottom=0;right=0;pointerEvents=1;rounded=1;" vertex="1" parent="153">
                    <mxGeometry x="60" width="60" height="40" as="geometry"/>
                </mxCell>
                <mxCell id="156" style="shape=partialRectangle;html=1;whiteSpace=wrap;connectable=0;overflow=hidden;fillColor=none;top=0;left=0;bottom=0;right=0;pointerEvents=1;rounded=1;" vertex="1" parent="153">
                    <mxGeometry x="120" width="60" height="40" as="geometry"/>
                </mxCell>
                <mxCell id="157" value="" style="shape=partialRectangle;collapsible=0;dropTarget=0;pointerEvents=0;fillColor=none;top=0;left=0;bottom=0;right=0;points=[[0,0.5],[1,0.5]];portConstraint=eastwest;rounded=1;" vertex="1" parent="144">
                    <mxGeometry y="150" width="180" height="40" as="geometry"/>
                </mxCell>
                <mxCell id="158" value="date" style="shape=partialRectangle;html=1;whiteSpace=wrap;connectable=0;overflow=hidden;fillColor=none;top=0;left=0;bottom=0;right=0;pointerEvents=1;rounded=1;" vertex="1" parent="157">
                    <mxGeometry width="60" height="40" as="geometry"/>
                </mxCell>
                <mxCell id="159" value="" style="shape=partialRectangle;html=1;whiteSpace=wrap;connectable=0;overflow=hidden;fillColor=none;top=0;left=0;bottom=0;right=0;pointerEvents=1;rounded=1;" vertex="1" parent="157">
                    <mxGeometry x="60" width="60" height="40" as="geometry"/>
                </mxCell>
                <mxCell id="160" style="shape=partialRectangle;html=1;whiteSpace=wrap;connectable=0;overflow=hidden;fillColor=none;top=0;left=0;bottom=0;right=0;pointerEvents=1;rounded=1;" vertex="1" parent="157">
                    <mxGeometry x="120" width="60" height="40" as="geometry"/>
                </mxCell>
                <mxCell id="161" value="" style="shape=partialRectangle;collapsible=0;dropTarget=0;pointerEvents=0;fillColor=none;top=0;left=0;bottom=0;right=0;points=[[0,0.5],[1,0.5]];portConstraint=eastwest;rounded=1;" vertex="1" parent="144">
                    <mxGeometry y="190" width="180" height="40" as="geometry"/>
                </mxCell>
                <mxCell id="162" value="ddate" style="shape=partialRectangle;html=1;whiteSpace=wrap;connectable=0;overflow=hidden;fillColor=none;top=0;left=0;bottom=0;right=0;pointerEvents=1;rounded=1;" vertex="1" parent="161">
                    <mxGeometry width="60" height="40" as="geometry"/>
                </mxCell>
                <mxCell id="163" value="" style="shape=partialRectangle;html=1;whiteSpace=wrap;connectable=0;overflow=hidden;fillColor=none;top=0;left=0;bottom=0;right=0;pointerEvents=1;rounded=1;" vertex="1" parent="161">
                    <mxGeometry x="60" width="60" height="40" as="geometry"/>
                </mxCell>
                <mxCell id="164" style="shape=partialRectangle;html=1;whiteSpace=wrap;connectable=0;overflow=hidden;fillColor=none;top=0;left=0;bottom=0;right=0;pointerEvents=1;rounded=1;" vertex="1" parent="161">
                    <mxGeometry x="120" width="60" height="40" as="geometry"/>
                </mxCell>
                <mxCell id="165" value="" style="shape=partialRectangle;collapsible=0;dropTarget=0;pointerEvents=0;fillColor=none;top=0;left=0;bottom=0;right=0;points=[[0,0.5],[1,0.5]];portConstraint=eastwest;rounded=1;" vertex="1" parent="144">
                    <mxGeometry y="230" width="180" height="40" as="geometry"/>
                </mxCell>
                <mxCell id="166" value="open" style="shape=partialRectangle;html=1;whiteSpace=wrap;connectable=0;overflow=hidden;fillColor=none;top=0;left=0;bottom=0;right=0;pointerEvents=1;rounded=1;" vertex="1" parent="165">
                    <mxGeometry width="60" height="40" as="geometry"/>
                </mxCell>
                <mxCell id="167" value="" style="shape=partialRectangle;html=1;whiteSpace=wrap;connectable=0;overflow=hidden;fillColor=none;top=0;left=0;bottom=0;right=0;pointerEvents=1;rounded=1;" vertex="1" parent="165">
                    <mxGeometry x="60" width="60" height="40" as="geometry"/>
                </mxCell>
                <mxCell id="168" style="shape=partialRectangle;html=1;whiteSpace=wrap;connectable=0;overflow=hidden;fillColor=none;top=0;left=0;bottom=0;right=0;pointerEvents=1;rounded=1;" vertex="1" parent="165">
                    <mxGeometry x="120" width="60" height="40" as="geometry"/>
                </mxCell>
                <mxCell id="169" value="" style="shape=partialRectangle;collapsible=0;dropTarget=0;pointerEvents=0;fillColor=none;top=0;left=0;bottom=0;right=0;points=[[0,0.5],[1,0.5]];portConstraint=eastwest;rounded=1;" vertex="1" parent="144">
                    <mxGeometry y="270" width="180" height="40" as="geometry"/>
                </mxCell>
                <mxCell id="170" value="close" style="shape=partialRectangle;html=1;whiteSpace=wrap;connectable=0;overflow=hidden;fillColor=none;top=0;left=0;bottom=0;right=0;pointerEvents=1;rounded=1;" vertex="1" parent="169">
                    <mxGeometry width="60" height="40" as="geometry"/>
                </mxCell>
                <mxCell id="171" value="" style="shape=partialRectangle;html=1;whiteSpace=wrap;connectable=0;overflow=hidden;fillColor=none;top=0;left=0;bottom=0;right=0;pointerEvents=1;rounded=1;" vertex="1" parent="169">
                    <mxGeometry x="60" width="60" height="40" as="geometry"/>
                </mxCell>
                <mxCell id="172" style="shape=partialRectangle;html=1;whiteSpace=wrap;connectable=0;overflow=hidden;fillColor=none;top=0;left=0;bottom=0;right=0;pointerEvents=1;rounded=1;" vertex="1" parent="169">
                    <mxGeometry x="120" width="60" height="40" as="geometry"/>
                </mxCell>
                <mxCell id="173" value="" style="shape=partialRectangle;collapsible=0;dropTarget=0;pointerEvents=0;fillColor=none;top=0;left=0;bottom=0;right=0;points=[[0,0.5],[1,0.5]];portConstraint=eastwest;rounded=1;" vertex="1" parent="144">
                    <mxGeometry y="310" width="180" height="40" as="geometry"/>
                </mxCell>
                <mxCell id="174" value="high" style="shape=partialRectangle;html=1;whiteSpace=wrap;connectable=0;overflow=hidden;fillColor=none;top=0;left=0;bottom=0;right=0;pointerEvents=1;rounded=1;" vertex="1" parent="173">
                    <mxGeometry width="60" height="40" as="geometry"/>
                </mxCell>
                <mxCell id="175" value="" style="shape=partialRectangle;html=1;whiteSpace=wrap;connectable=0;overflow=hidden;fillColor=none;top=0;left=0;bottom=0;right=0;pointerEvents=1;rounded=1;" vertex="1" parent="173">
                    <mxGeometry x="60" width="60" height="40" as="geometry"/>
                </mxCell>
                <mxCell id="176" style="shape=partialRectangle;html=1;whiteSpace=wrap;connectable=0;overflow=hidden;fillColor=none;top=0;left=0;bottom=0;right=0;pointerEvents=1;rounded=1;" vertex="1" parent="173">
                    <mxGeometry x="120" width="60" height="40" as="geometry"/>
                </mxCell>
                <mxCell id="177" value="" style="shape=partialRectangle;collapsible=0;dropTarget=0;pointerEvents=0;fillColor=none;top=0;left=0;bottom=0;right=0;points=[[0,0.5],[1,0.5]];portConstraint=eastwest;rounded=1;" vertex="1" parent="144">
                    <mxGeometry y="350" width="180" height="40" as="geometry"/>
                </mxCell>
                <mxCell id="178" value="low" style="shape=partialRectangle;html=1;whiteSpace=wrap;connectable=0;overflow=hidden;fillColor=none;top=0;left=0;bottom=0;right=0;pointerEvents=1;rounded=1;" vertex="1" parent="177">
                    <mxGeometry width="60" height="40" as="geometry"/>
                </mxCell>
                <mxCell id="179" value="" style="shape=partialRectangle;html=1;whiteSpace=wrap;connectable=0;overflow=hidden;fillColor=none;top=0;left=0;bottom=0;right=0;pointerEvents=1;rounded=1;" vertex="1" parent="177">
                    <mxGeometry x="60" width="60" height="40" as="geometry"/>
                </mxCell>
                <mxCell id="180" style="shape=partialRectangle;html=1;whiteSpace=wrap;connectable=0;overflow=hidden;fillColor=none;top=0;left=0;bottom=0;right=0;pointerEvents=1;rounded=1;" vertex="1" parent="177">
                    <mxGeometry x="120" width="60" height="40" as="geometry"/>
                </mxCell>
                <mxCell id="181" value="" style="shape=partialRectangle;collapsible=0;dropTarget=0;pointerEvents=0;fillColor=none;top=0;left=0;bottom=0;right=0;points=[[0,0.5],[1,0.5]];portConstraint=eastwest;rounded=1;" vertex="1" parent="144">
                    <mxGeometry y="390" width="180" height="40" as="geometry"/>
                </mxCell>
                <mxCell id="182" value="volume" style="shape=partialRectangle;html=1;whiteSpace=wrap;connectable=0;overflow=hidden;fillColor=none;top=0;left=0;bottom=0;right=0;pointerEvents=1;rounded=1;" vertex="1" parent="181">
                    <mxGeometry width="60" height="40" as="geometry"/>
                </mxCell>
                <mxCell id="183" value="" style="shape=partialRectangle;html=1;whiteSpace=wrap;connectable=0;overflow=hidden;fillColor=none;top=0;left=0;bottom=0;right=0;pointerEvents=1;rounded=1;" vertex="1" parent="181">
                    <mxGeometry x="60" width="60" height="40" as="geometry"/>
                </mxCell>
                <mxCell id="184" style="shape=partialRectangle;html=1;whiteSpace=wrap;connectable=0;overflow=hidden;fillColor=none;top=0;left=0;bottom=0;right=0;pointerEvents=1;rounded=1;" vertex="1" parent="181">
                    <mxGeometry x="120" width="60" height="40" as="geometry"/>
                </mxCell>
                <mxCell id="185" value="" style="shape=partialRectangle;collapsible=0;dropTarget=0;pointerEvents=0;fillColor=none;top=0;left=0;bottom=0;right=0;points=[[0,0.5],[1,0.5]];portConstraint=eastwest;rounded=1;" vertex="1" parent="144">
                    <mxGeometry y="430" width="180" height="40" as="geometry"/>
                </mxCell>
                <mxCell id="186" value="money" style="shape=partialRectangle;html=1;whiteSpace=wrap;connectable=0;overflow=hidden;fillColor=none;top=0;left=0;bottom=0;right=0;pointerEvents=1;rounded=1;" vertex="1" parent="185">
                    <mxGeometry width="60" height="40" as="geometry"/>
                </mxCell>
                <mxCell id="187" value="" style="shape=partialRectangle;html=1;whiteSpace=wrap;connectable=0;overflow=hidden;fillColor=none;top=0;left=0;bottom=0;right=0;pointerEvents=1;rounded=1;" vertex="1" parent="185">
                    <mxGeometry x="60" width="60" height="40" as="geometry"/>
                </mxCell>
                <mxCell id="188" style="shape=partialRectangle;html=1;whiteSpace=wrap;connectable=0;overflow=hidden;fillColor=none;top=0;left=0;bottom=0;right=0;pointerEvents=1;rounded=1;" vertex="1" parent="185">
                    <mxGeometry x="120" width="60" height="40" as="geometry"/>
                </mxCell>
                <mxCell id="189" value="" style="shape=partialRectangle;collapsible=0;dropTarget=0;pointerEvents=0;fillColor=none;top=0;left=0;bottom=0;right=0;points=[[0,0.5],[1,0.5]];portConstraint=eastwest;rounded=1;" vertex="1" parent="144">
                    <mxGeometry y="470" width="180" height="40" as="geometry"/>
                </mxCell>
                <mxCell id="190" value="create_at" style="shape=partialRectangle;html=1;whiteSpace=wrap;connectable=0;overflow=hidden;fillColor=none;top=0;left=0;bottom=0;right=0;pointerEvents=1;rounded=1;" vertex="1" parent="189">
                    <mxGeometry width="60" height="40" as="geometry"/>
                </mxCell>
                <mxCell id="191" value="" style="shape=partialRectangle;html=1;whiteSpace=wrap;connectable=0;overflow=hidden;fillColor=none;top=0;left=0;bottom=0;right=0;pointerEvents=1;rounded=1;" vertex="1" parent="189">
                    <mxGeometry x="60" width="60" height="40" as="geometry"/>
                </mxCell>
                <mxCell id="192" style="shape=partialRectangle;html=1;whiteSpace=wrap;connectable=0;overflow=hidden;fillColor=none;top=0;left=0;bottom=0;right=0;pointerEvents=1;rounded=1;" vertex="1" parent="189">
                    <mxGeometry x="120" width="60" height="40" as="geometry"/>
                </mxCell>
                <mxCell id="251" style="edgeStyle=none;html=1;entryX=0.472;entryY=1;entryDx=0;entryDy=0;entryPerimeter=0;startArrow=classic;startFill=1;endArrow=classic;endFill=1;" edge="1" parent="1" source="195" target="227">
                    <mxGeometry relative="1" as="geometry"/>
                </mxCell>
                <mxCell id="252" value="实时计算结果" style="edgeLabel;html=1;align=center;verticalAlign=middle;resizable=0;points=[];rounded=1;" vertex="1" connectable="0" parent="251">
                    <mxGeometry x="0.0182" y="-1" relative="1" as="geometry">
                        <mxPoint as="offset"/>
                    </mxGeometry>
                </mxCell>
                <mxCell id="253" style="edgeStyle=none;html=1;startArrow=none;startFill=0;endArrow=classic;endFill=1;entryX=0;entryY=0.5;entryDx=0;entryDy=0;" edge="1" parent="1" source="195" target="256">
                    <mxGeometry relative="1" as="geometry">
                        <mxPoint x="990" y="1090" as="targetPoint"/>
                    </mxGeometry>
                </mxCell>
                <mxCell id="266" style="edgeStyle=none;html=1;startArrow=none;startFill=0;entryX=0.5;entryY=1;entryDx=0;entryDy=0;" edge="1" parent="1" source="195" target="17">
                    <mxGeometry relative="1" as="geometry">
                        <mxPoint x="1180" y="630" as="targetPoint"/>
                        <Array as="points">
                            <mxPoint x="1230" y="820"/>
                        </Array>
                    </mxGeometry>
                </mxCell>
                <mxCell id="267" value="执行交易计划" style="edgeLabel;html=1;align=center;verticalAlign=middle;resizable=0;points=[];rounded=1;" vertex="1" connectable="0" parent="266">
                    <mxGeometry x="-0.3897" y="5" relative="1" as="geometry">
                        <mxPoint y="1" as="offset"/>
                    </mxGeometry>
                </mxCell>
                <mxCell id="268" style="edgeStyle=none;html=1;startArrow=classic;startFill=1;" edge="1" parent="1" source="195" target="274">
                    <mxGeometry relative="1" as="geometry">
                        <mxPoint x="1090" y="710" as="targetPoint"/>
                    </mxGeometry>
                </mxCell>
                <mxCell id="195" value="rust模块:定期计算处理bar" style="ellipse;whiteSpace=wrap;html=1;aspect=fixed;verticalAlign=middle;fillColor=#f0a30a;strokeColor=#BD7000;fontColor=#000000;rounded=1;" vertex="1" parent="1">
                    <mxGeometry x="620" y="1040" width="80" height="80" as="geometry"/>
                </mxCell>
                <mxCell id="200" value="" style="edgeStyle=segmentEdgeStyle;endArrow=classic;html=1;entryX=0;entryY=0.5;entryDx=0;entryDy=0;exitX=0.472;exitY=1.025;exitDx=0;exitDy=0;exitPerimeter=0;" edge="1" parent="1" source="136" target="195">
                    <mxGeometry width="50" height="50" relative="1" as="geometry">
                        <mxPoint x="360" y="980" as="sourcePoint"/>
                        <mxPoint x="770" y="820" as="targetPoint"/>
                        <Array as="points">
                            <mxPoint x="395" y="1080"/>
                        </Array>
                    </mxGeometry>
                </mxCell>
                <mxCell id="201" value="" style="edgeStyle=segmentEdgeStyle;endArrow=classic;html=1;entryX=0.5;entryY=1;entryDx=0;entryDy=0;exitX=0.489;exitY=1;exitDx=0;exitDy=0;exitPerimeter=0;" edge="1" parent="1" source="189" target="195">
                    <mxGeometry width="50" height="50" relative="1" as="geometry">
                        <mxPoint x="180" y="950" as="sourcePoint"/>
                        <mxPoint x="445.03999999999996" y="1194" as="targetPoint"/>
                        <Array as="points">
                            <mxPoint x="190" y="905"/>
                            <mxPoint x="190" y="1194"/>
                            <mxPoint x="660" y="1194"/>
                        </Array>
                    </mxGeometry>
                </mxCell>
                <mxCell id="202" value="result" style="shape=table;startSize=30;container=1;collapsible=0;childLayout=tableLayout;rounded=1;" vertex="1" parent="1">
                    <mxGeometry x="820" y="395" width="180" height="310" as="geometry"/>
                </mxCell>
                <mxCell id="203" value="" style="shape=partialRectangle;collapsible=0;dropTarget=0;pointerEvents=0;fillColor=none;top=0;left=0;bottom=0;right=0;points=[[0,0.5],[1,0.5]];portConstraint=eastwest;rounded=1;" vertex="1" parent="202">
                    <mxGeometry y="30" width="180" height="40" as="geometry"/>
                </mxCell>
                <mxCell id="204" value="code" style="shape=partialRectangle;html=1;whiteSpace=wrap;connectable=0;overflow=hidden;fillColor=none;top=0;left=0;bottom=0;right=0;pointerEvents=1;rounded=1;" vertex="1" parent="203">
                    <mxGeometry width="60" height="40" as="geometry"/>
                </mxCell>
                <mxCell id="205" value="" style="shape=partialRectangle;html=1;whiteSpace=wrap;connectable=0;overflow=hidden;fillColor=none;top=0;left=0;bottom=0;right=0;pointerEvents=1;rounded=1;" vertex="1" parent="203">
                    <mxGeometry x="60" width="60" height="40" as="geometry"/>
                </mxCell>
                <mxCell id="206" style="shape=partialRectangle;html=1;whiteSpace=wrap;connectable=0;overflow=hidden;fillColor=none;top=0;left=0;bottom=0;right=0;pointerEvents=1;rounded=1;" vertex="1" parent="203">
                    <mxGeometry x="120" width="60" height="40" as="geometry"/>
                </mxCell>
                <mxCell id="207" value="" style="shape=partialRectangle;collapsible=0;dropTarget=0;pointerEvents=0;fillColor=none;top=0;left=0;bottom=0;right=0;points=[[0,0.5],[1,0.5]];portConstraint=eastwest;rounded=1;" vertex="1" parent="202">
                    <mxGeometry y="70" width="180" height="40" as="geometry"/>
                </mxCell>
                <mxCell id="208" value="name" style="shape=partialRectangle;html=1;whiteSpace=wrap;connectable=0;overflow=hidden;fillColor=none;top=0;left=0;bottom=0;right=0;pointerEvents=1;rounded=1;" vertex="1" parent="207">
                    <mxGeometry width="60" height="40" as="geometry"/>
                </mxCell>
                <mxCell id="209" value="" style="shape=partialRectangle;html=1;whiteSpace=wrap;connectable=0;overflow=hidden;fillColor=none;top=0;left=0;bottom=0;right=0;pointerEvents=1;rounded=1;" vertex="1" parent="207">
                    <mxGeometry x="60" width="60" height="40" as="geometry"/>
                </mxCell>
                <mxCell id="210" style="shape=partialRectangle;html=1;whiteSpace=wrap;connectable=0;overflow=hidden;fillColor=none;top=0;left=0;bottom=0;right=0;pointerEvents=1;rounded=1;" vertex="1" parent="207">
                    <mxGeometry x="120" width="60" height="40" as="geometry"/>
                </mxCell>
                <mxCell id="211" value="" style="shape=partialRectangle;collapsible=0;dropTarget=0;pointerEvents=0;fillColor=none;top=0;left=0;bottom=0;right=0;points=[[0,0.5],[1,0.5]];portConstraint=eastwest;rounded=1;" vertex="1" parent="202">
                    <mxGeometry y="110" width="180" height="40" as="geometry"/>
                </mxCell>
                <mxCell id="212" value="status" style="shape=partialRectangle;html=1;whiteSpace=wrap;connectable=0;overflow=hidden;fillColor=none;top=0;left=0;bottom=0;right=0;pointerEvents=1;rounded=1;" vertex="1" parent="211">
                    <mxGeometry width="60" height="40" as="geometry"/>
                </mxCell>
                <mxCell id="213" value="" style="shape=partialRectangle;html=1;whiteSpace=wrap;connectable=0;overflow=hidden;fillColor=none;top=0;left=0;bottom=0;right=0;pointerEvents=1;rounded=1;" vertex="1" parent="211">
                    <mxGeometry x="60" width="60" height="40" as="geometry"/>
                </mxCell>
                <mxCell id="214" style="shape=partialRectangle;html=1;whiteSpace=wrap;connectable=0;overflow=hidden;fillColor=none;top=0;left=0;bottom=0;right=0;pointerEvents=1;rounded=1;" vertex="1" parent="211">
                    <mxGeometry x="120" width="60" height="40" as="geometry"/>
                </mxCell>
                <mxCell id="215" value="" style="shape=partialRectangle;collapsible=0;dropTarget=0;pointerEvents=0;fillColor=none;top=0;left=0;bottom=0;right=0;points=[[0,0.5],[1,0.5]];portConstraint=eastwest;rounded=1;" vertex="1" parent="202">
                    <mxGeometry y="150" width="180" height="40" as="geometry"/>
                </mxCell>
                <mxCell id="216" value="line" style="shape=partialRectangle;html=1;whiteSpace=wrap;connectable=0;overflow=hidden;fillColor=none;top=0;left=0;bottom=0;right=0;pointerEvents=1;rounded=1;" vertex="1" parent="215">
                    <mxGeometry width="60" height="40" as="geometry"/>
                </mxCell>
                <mxCell id="217" value="" style="shape=partialRectangle;html=1;whiteSpace=wrap;connectable=0;overflow=hidden;fillColor=none;top=0;left=0;bottom=0;right=0;pointerEvents=1;rounded=1;" vertex="1" parent="215">
                    <mxGeometry x="60" width="60" height="40" as="geometry"/>
                </mxCell>
                <mxCell id="218" style="shape=partialRectangle;html=1;whiteSpace=wrap;connectable=0;overflow=hidden;fillColor=none;top=0;left=0;bottom=0;right=0;pointerEvents=1;rounded=1;" vertex="1" parent="215">
                    <mxGeometry x="120" width="60" height="40" as="geometry"/>
                </mxCell>
                <mxCell id="219" value="" style="shape=partialRectangle;collapsible=0;dropTarget=0;pointerEvents=0;fillColor=none;top=0;left=0;bottom=0;right=0;points=[[0,0.5],[1,0.5]];portConstraint=eastwest;rounded=1;" vertex="1" parent="202">
                    <mxGeometry y="190" width="180" height="40" as="geometry"/>
                </mxCell>
                <mxCell id="220" value="zs" style="shape=partialRectangle;html=1;whiteSpace=wrap;connectable=0;overflow=hidden;fillColor=none;top=0;left=0;bottom=0;right=0;pointerEvents=1;rounded=1;" vertex="1" parent="219">
                    <mxGeometry width="60" height="40" as="geometry"/>
                </mxCell>
                <mxCell id="221" value="" style="shape=partialRectangle;html=1;whiteSpace=wrap;connectable=0;overflow=hidden;fillColor=none;top=0;left=0;bottom=0;right=0;pointerEvents=1;rounded=1;" vertex="1" parent="219">
                    <mxGeometry x="60" width="60" height="40" as="geometry"/>
                </mxCell>
                <mxCell id="222" style="shape=partialRectangle;html=1;whiteSpace=wrap;connectable=0;overflow=hidden;fillColor=none;top=0;left=0;bottom=0;right=0;pointerEvents=1;rounded=1;" vertex="1" parent="219">
                    <mxGeometry x="120" width="60" height="40" as="geometry"/>
                </mxCell>
                <mxCell id="223" value="" style="shape=partialRectangle;collapsible=0;dropTarget=0;pointerEvents=0;fillColor=none;top=0;left=0;bottom=0;right=0;points=[[0,0.5],[1,0.5]];portConstraint=eastwest;rounded=1;" vertex="1" parent="202">
                    <mxGeometry y="230" width="180" height="40" as="geometry"/>
                </mxCell>
                <mxCell id="224" value="update_at" style="shape=partialRectangle;html=1;whiteSpace=wrap;connectable=0;overflow=hidden;fillColor=none;top=0;left=0;bottom=0;right=0;pointerEvents=1;rounded=1;" vertex="1" parent="223">
                    <mxGeometry width="60" height="40" as="geometry"/>
                </mxCell>
                <mxCell id="225" value="" style="shape=partialRectangle;html=1;whiteSpace=wrap;connectable=0;overflow=hidden;fillColor=none;top=0;left=0;bottom=0;right=0;pointerEvents=1;rounded=1;" vertex="1" parent="223">
                    <mxGeometry x="60" width="60" height="40" as="geometry"/>
                </mxCell>
                <mxCell id="226" style="shape=partialRectangle;html=1;whiteSpace=wrap;connectable=0;overflow=hidden;fillColor=none;top=0;left=0;bottom=0;right=0;pointerEvents=1;rounded=1;" vertex="1" parent="223">
                    <mxGeometry x="120" width="60" height="40" as="geometry"/>
                </mxCell>
                <mxCell id="227" value="" style="shape=partialRectangle;collapsible=0;dropTarget=0;pointerEvents=0;fillColor=none;top=0;left=0;bottom=0;right=0;points=[[0,0.5],[1,0.5]];portConstraint=eastwest;rounded=1;" vertex="1" parent="202">
                    <mxGeometry y="270" width="180" height="40" as="geometry"/>
                </mxCell>
                <mxCell id="228" value="create_at" style="shape=partialRectangle;html=1;whiteSpace=wrap;connectable=0;overflow=hidden;fillColor=none;top=0;left=0;bottom=0;right=0;pointerEvents=1;rounded=1;" vertex="1" parent="227">
                    <mxGeometry width="60" height="40" as="geometry"/>
                </mxCell>
                <mxCell id="229" value="" style="shape=partialRectangle;html=1;whiteSpace=wrap;connectable=0;overflow=hidden;fillColor=none;top=0;left=0;bottom=0;right=0;pointerEvents=1;rounded=1;" vertex="1" parent="227">
                    <mxGeometry x="60" width="60" height="40" as="geometry"/>
                </mxCell>
                <mxCell id="230" style="shape=partialRectangle;html=1;whiteSpace=wrap;connectable=0;overflow=hidden;fillColor=none;top=0;left=0;bottom=0;right=0;pointerEvents=1;rounded=1;" vertex="1" parent="227">
                    <mxGeometry x="120" width="60" height="40" as="geometry"/>
                </mxCell>
                <mxCell id="257" style="edgeStyle=none;html=1;startArrow=none;startFill=0;endArrow=classic;endFill=1;entryX=0.5;entryY=0;entryDx=0;entryDy=0;entryPerimeter=0;" edge="1" parent="1" source="256" target="258">
                    <mxGeometry relative="1" as="geometry">
                        <mxPoint x="970" y="1210" as="targetPoint"/>
                    </mxGeometry>
                </mxCell>
                <mxCell id="256" value="微信通知" style="rhombus;whiteSpace=wrap;html=1;verticalAlign=middle;rounded=1;" vertex="1" parent="1">
                    <mxGeometry x="860" y="970" width="80" height="80" as="geometry"/>
                </mxCell>
                <mxCell id="258" value="We" style="shape=umlActor;verticalLabelPosition=bottom;verticalAlign=top;html=1;outlineConnect=0;rounded=1;" vertex="1" parent="1">
                    <mxGeometry x="1015" y="1010" width="30" height="60" as="geometry"/>
                </mxCell>
                <mxCell id="261" value="" style="edgeStyle=segmentEdgeStyle;endArrow=classic;html=1;entryX=1;entryY=0.5;entryDx=0;entryDy=0;exitX=0;exitY=1;exitDx=0;exitDy=0;exitPerimeter=0;startArrow=classic;startFill=1;" edge="1" parent="1" source="258" target="263">
                    <mxGeometry width="50" height="50" relative="1" as="geometry">
                        <mxPoint x="1030" y="1120" as="sourcePoint"/>
                        <mxPoint x="820" y="1300" as="targetPoint"/>
                        <Array as="points">
                            <mxPoint x="1015" y="1110"/>
                        </Array>
                    </mxGeometry>
                </mxCell>
                <mxCell id="264" style="edgeStyle=none;html=1;entryX=1;entryY=1;entryDx=0;entryDy=0;startArrow=classic;startFill=1;endArrow=classic;endFill=1;" edge="1" parent="1" source="263" target="195">
                    <mxGeometry relative="1" as="geometry"/>
                </mxCell>
                <mxCell id="265" value="拉取结果" style="edgeLabel;html=1;align=center;verticalAlign=middle;resizable=0;points=[];rounded=1;" vertex="1" connectable="0" parent="264">
                    <mxGeometry x="0.1186" y="2" relative="1" as="geometry">
                        <mxPoint as="offset"/>
                    </mxGeometry>
                </mxCell>
                <mxCell id="263" value="web服务显示重点行情结果" style="ellipse;whiteSpace=wrap;html=1;aspect=fixed;verticalAlign=middle;fillColor=#e6d0de;strokeColor=#996185;gradientColor=#d5739d;rounded=1;" vertex="1" parent="1">
                    <mxGeometry x="820" y="1070" width="80" height="80" as="geometry"/>
                </mxCell>
                <mxCell id="269" value="待续..." style="shape=table;startSize=30;container=1;collapsible=0;childLayout=tableLayout;rounded=1;" vertex="1" parent="1">
                    <mxGeometry x="1030" y="595" width="180" height="110" as="geometry"/>
                </mxCell>
                <mxCell id="270" value="" style="shape=partialRectangle;collapsible=0;dropTarget=0;pointerEvents=0;fillColor=none;top=0;left=0;bottom=0;right=0;points=[[0,0.5],[1,0.5]];portConstraint=eastwest;rounded=1;" vertex="1" parent="269">
                    <mxGeometry y="30" width="180" height="40" as="geometry"/>
                </mxCell>
                <mxCell id="271" value="" style="shape=partialRectangle;html=1;whiteSpace=wrap;connectable=0;overflow=hidden;fillColor=none;top=0;left=0;bottom=0;right=0;pointerEvents=1;rounded=1;" vertex="1" parent="270">
                    <mxGeometry width="60" height="40" as="geometry"/>
                </mxCell>
                <mxCell id="272" value="" style="shape=partialRectangle;html=1;whiteSpace=wrap;connectable=0;overflow=hidden;fillColor=none;top=0;left=0;bottom=0;right=0;pointerEvents=1;rounded=1;" vertex="1" parent="270">
                    <mxGeometry x="60" width="60" height="40" as="geometry"/>
                </mxCell>
                <mxCell id="273" value="" style="shape=partialRectangle;html=1;whiteSpace=wrap;connectable=0;overflow=hidden;fillColor=none;top=0;left=0;bottom=0;right=0;pointerEvents=1;rounded=1;" vertex="1" parent="270">
                    <mxGeometry x="120" width="60" height="40" as="geometry"/>
                </mxCell>
                <mxCell id="274" value="" style="shape=partialRectangle;collapsible=0;dropTarget=0;pointerEvents=0;fillColor=none;top=0;left=0;bottom=0;right=0;points=[[0,0.5],[1,0.5]];portConstraint=eastwest;rounded=1;" vertex="1" parent="269">
                    <mxGeometry y="70" width="180" height="40" as="geometry"/>
                </mxCell>
                <mxCell id="275" value="" style="shape=partialRectangle;html=1;whiteSpace=wrap;connectable=0;overflow=hidden;fillColor=none;top=0;left=0;bottom=0;right=0;pointerEvents=1;rounded=1;" vertex="1" parent="274">
                    <mxGeometry width="60" height="40" as="geometry"/>
                </mxCell>
                <mxCell id="276" value="" style="shape=partialRectangle;html=1;whiteSpace=wrap;connectable=0;overflow=hidden;fillColor=none;top=0;left=0;bottom=0;right=0;pointerEvents=1;rounded=1;" vertex="1" parent="274">
                    <mxGeometry x="60" width="60" height="40" as="geometry"/>
                </mxCell>
                <mxCell id="277" value="" style="shape=partialRectangle;html=1;whiteSpace=wrap;connectable=0;overflow=hidden;fillColor=none;top=0;left=0;bottom=0;right=0;pointerEvents=1;rounded=1;" vertex="1" parent="274">
                    <mxGeometry x="120" width="60" height="40" as="geometry"/>
                </mxCell>
            </root>
        </mxGraphModel>
    </diagram>
</mxfile>